HIERARCHY
ROOT RootJoint
{
    OFFSET   0.000000   0.000000   0.000000
    CHANNELS 6 Xposition Yposition Zposition Xrotation Yrotation Zrotation
    JOINT pelvis_lowerback
    {
        OFFSET   0.000000   0.093605   0.000000
        CHANNELS 3 Xrotation Yrotation Zrotation
        JOINT lowerback_torso
        {
            OFFSET   0.000000   0.100000   0.000000
            CHANNELS 3 Xrotation Yrotation Zrotation
            JOINT torso_head
            {
                OFFSET   0.000000   0.282350   0.000000
                CHANNELS 3 Xrotation Yrotation Zrotation
                End Site
                {
                    OFFSET   0.000000   0.192650   0.000000
                }
            }
            JOINT rTorso_Clavicle
            {
                OFFSET  -0.001000   0.157500   0.000000
                CHANNELS 3 Xrotation Yrotation Zrotation
                JOINT rShoulder
                {
                    OFFSET  -0.117647   0.000000   0.000000
                    CHANNELS 3 Xrotation Yrotation Zrotation
                    JOINT rElbow
                    {
                        OFFSET  -0.245000   0.000000   0.000000
                        CHANNELS 3 Xrotation Yrotation Zrotation
                        JOINT rWrist
                        {
                            OFFSET  -0.240000   0.000000   0.000000
                            CHANNELS 3 Xrotation Yrotation Zrotation
                            End Site
                            {
                                OFFSET  -0.116353  -0.002500   0.000000
                            }
                        }
                    }
                }
            }
            JOINT lTorso_Clavicle
            {
                OFFSET   0.001000   0.157500   0.000000
                CHANNELS 3 Xrotation Yrotation Zrotation
                JOINT lShoulder
                {
                    OFFSET   0.117647   0.000000   0.000000
                    CHANNELS 3 Xrotation Yrotation Zrotation
                    JOINT lElbow
                    {
                        OFFSET   0.245000   0.000000   0.000000
                        CHANNELS 3 Xrotation Yrotation Zrotation
                        JOINT lWrist
                        {
                            OFFSET   0.240000   0.000000   0.000000
                            CHANNELS 3 Xrotation Yrotation Zrotation
                            End Site
                            {
                                OFFSET   0.116353  -0.002500   0.000000
                            }
                        }
                    }
                }
            }
        }
    }
    JOINT rHip
    {
        OFFSET  -0.100000  -0.051395   0.000000
        CHANNELS 3 Xrotation Yrotation Zrotation
        JOINT rKnee
        {
            OFFSET   0.000000  -0.410000   0.000000
            CHANNELS 3 Xrotation Yrotation Zrotation
            JOINT rAnkle
            {
                OFFSET   0.000000  -0.390000   0.000000
                CHANNELS 3 Xrotation Yrotation Zrotation
                JOINT rToeJoint
                {
                    OFFSET   0.000000  -0.050000   0.130000
                    CHANNELS 3 Xrotation Yrotation Zrotation
                    End Site
                    {
                        OFFSET  -0.010000   0.002000   0.060000
                    }
                }
            }
        }
    }
    JOINT lHip
    {
        OFFSET   0.100000  -0.051395   0.000000
        CHANNELS 3 Xrotation Yrotation Zrotation
        JOINT lKnee
        {
            OFFSET   0.000000  -0.410000   0.000000
            CHANNELS 3 Xrotation Yrotation Zrotation
            JOINT lAnkle
            {
                OFFSET   0.000000  -0.390000   0.000000
                CHANNELS 3 Xrotation Yrotation Zrotation
                JOINT lToeJoint
                {
                    OFFSET   0.000000  -0.050000   0.130000
                    CHANNELS 3 Xrotation Yrotation Zrotation
                    End Site
                    {
                        OFFSET   0.010000   0.002000   0.060000
                    }
                }
            }
        }
    }
}
MOTION
Frames: 17
Frame Time:   0.008333
 -2.247326   0.921761   4.162632 -177.441535 -20.334518 177.351924   4.517727  -0.574609  -1.199018   2.162117  -1.753535   2.032759  -1.239886   0.401914   2.182253   2.731534  -2.300543   9.345007   4.697982   3.868843  51.426334  -0.000188  18.661589   0.000041  -1.594678   3.418317  -2.258514   3.890450  -0.044863  -8.744857   3.172085  -5.607102 -54.005002  -0.000061 -18.046542  -0.000130  -1.479826  -2.751325   5.658439   5.681886  -1.573161   0.216565   8.423070   0.000029   0.000009  -2.163525  -6.379200   4.032255 -14.294159  -0.000180  -0.000181   8.137674  -0.474644   5.296097   3.293815   0.000051  -0.000055  -9.363457   3.044573   3.691564   0.412927  -0.000001   0.000001
 -2.247185   0.921756   4.162472 -177.422701 -20.349560 177.361403   4.461322  -0.575302  -1.180816   2.186990  -1.760958   2.042266  -1.205128   0.391582   2.157253   2.717700  -2.244219   9.323923   4.648891   3.898480  51.503054  -0.000174  18.628450   0.000039  -1.628864   3.416397  -2.221140   3.883685  -0.086511  -8.731705   3.132494  -5.646162 -54.055669  -0.000048 -18.000152  -0.000109  -1.498811  -2.747253   5.640651   5.748984  -1.591176   0.224423   8.352596   0.000028   0.000009  -2.178685  -6.363285   4.054101 -14.149472  -0.000191  -0.000136   8.204155  -0.472098   5.307789   3.206511   0.000050  -0.000054  -9.327798   3.033398   3.692433   0.417333  -0.000001   0.000001
 -2.247037   0.921754   4.162316 -177.402733 -20.364233 177.369289   4.407597  -0.575888  -1.166058   2.211117  -1.767333   2.050956  -1.170703   0.381369   2.133972   2.702524  -2.190081   9.303348   4.600935   3.927865  51.575717  -0.000158  18.598914   0.000036  -1.662014   3.419414  -2.182860   3.877328  -0.124948  -8.716871   3.095439  -5.682497 -54.101946  -0.000038 -17.956809  -0.000091  -1.517447  -2.741253   5.624199   5.812449  -1.609113   0.235012   8.289042   0.000028   0.000009  -2.186852  -6.348803   4.074345 -14.036713  -0.000187  -0.000104   8.268377  -0.469632   5.321828   3.125553   0.000048  -0.000052  -9.295230   3.022752   3.693839   0.421742  -0.000002   0.000001
 -2.246887   0.921751   4.162165 -177.382883 -20.378514 177.377060   4.356308  -0.575710  -1.154669   2.232953  -1.772506   2.057767  -1.138394   0.371767   2.111966   2.687335  -2.138739   9.283673   4.555217   3.955944  51.643371  -0.000141  18.571921   0.000033  -1.693671   3.425922  -2.146255   3.871567  -0.160545  -8.701713   3.061009  -5.716139 -54.144165  -0.000031 -17.916290  -0.000075  -1.535327  -2.735044   5.609910   5.872191  -1.626613   0.245920   8.230977   0.000027   0.000008  -2.192128  -6.335854   4.093178 -13.945545  -0.000176  -0.000080   8.329471  -0.467496   5.335867   3.050158   0.000047  -0.000050  -9.265149   3.012566   3.695283   0.425977  -0.000002   0.000001
 -2.246737   0.921747   4.162019 -177.363451 -20.392415 177.384999   4.307269  -0.574741  -1.146100   2.252497  -1.776592   2.062633  -1.108321   0.362792   2.091165   2.672583  -2.090342   9.264677   4.511997   3.982446  51.706073  -0.000125  18.547026   0.000030  -1.723922   3.434175  -2.112088   3.866452  -0.193465  -8.686914   3.029083  -5.747276 -54.183014  -0.000025 -17.878382  -0.000061  -1.552494  -2.728759   5.597361   5.928556  -1.643572   0.256532   8.177433   0.000026   0.000008  -2.195786  -6.324309   4.110729 -13.870648  -0.000161  -0.000062   8.387370  -0.465710   5.349335   2.979852   0.000045  -0.000047  -9.237263   3.002776   3.696637   0.429999  -0.000002   0.000001
 -2.246590   0.921742   4.161880 -177.344536 -20.405906 177.393090   4.260435  -0.573093  -1.139868   2.269995  -1.779748   2.065723  -1.080380   0.354415   2.071548   2.658451  -2.044872   9.246236   4.471306   4.007318  51.764058  -0.000109  18.523970   0.000027  -1.752855   3.443270  -2.080521   3.861992  -0.223879  -8.672830   2.999525  -5.776093 -54.219008  -0.000020 -17.842902  -0.000048  -1.568993  -2.722365   5.586004   5.981768  -1.659922   0.266708   8.127862   0.000025   0.000007  -2.198359  -6.314003   4.127099 -13.808570  -0.000145  -0.000049   8.442143  -0.464238   5.362126   2.914269   0.000042  -0.000044  -9.211354   2.993372   3.697877   0.433808  -0.000002   0.000000
 -2.246446   0.921736   4.161748 -177.326177 -20.418952 177.401250   4.215806  -0.570900  -1.135599   2.285728  -1.782127   2.067249  -1.054427   0.346599   2.053081   2.645028  -2.002245   9.228311   4.433093   4.030583  51.817626  -0.000095  18.502565   0.000025  -1.780539   3.452737  -2.051494   3.858171  -0.251960  -8.659622   2.972193  -5.802763 -54.252508  -0.000017 -17.809685  -0.000038  -1.584861  -2.715829   5.575433   6.031989  -1.675613   0.276438   8.081888   0.000024   0.000007  -2.200129  -6.304774   4.142375 -13.756775  -0.000128  -0.000038   8.493889  -0.463038   5.374256   2.853083   0.000040  -0.000041  -9.187230   2.984360   3.699008   0.437416  -0.000002   0.000000
 -2.246315   0.921730   4.161610 -177.297324 -20.440980 177.413732   4.170334  -0.570434  -1.132959   2.314518  -1.788011   2.067251  -1.013087   0.338312   2.036462   2.620584  -1.966325   9.195386   4.385893   4.052184  51.882803  -0.000083  18.471581   0.000020  -1.809690   3.450866  -2.016093   3.849586  -0.267461  -8.636000   2.931160  -5.844590 -54.291945  -0.000012 -17.740289  -0.000021  -1.601376  -2.709734   5.546502   6.093020  -1.693329   0.285699   8.038423   0.000022   0.000004  -2.198756  -6.302068   4.162839 -13.719932  -0.000112  -0.000031   8.559790  -0.462069   5.386638   2.782716   0.000038  -0.000044  -9.158027   2.967475   3.696685   0.440260  -0.000002   0.000000
 -2.246193   0.921726   4.161484 -177.268157 -20.465546 177.426285   4.126513  -0.569003  -1.131542   2.342013  -1.792981   2.066106  -0.972801   0.330510   2.020948   2.596131  -1.932106   9.161705   4.340424   4.073002  51.942133  -0.000071  18.443240   0.000017  -1.838149   3.448993  -1.984209   3.841189  -0.281858  -8.611951   2.892579  -5.883583 -54.327474  -0.000007 -17.674967  -0.000005  -1.618005  -2.696625   5.518187   6.151207  -1.711909   0.294736   8.000376   0.000020   0.000001  -2.196232  -6.301711   4.182335 -13.692760  -0.000097  -0.000024   8.623486  -0.462832   5.398688   2.715676   0.000036  -0.000047  -9.129516   2.949528   3.694235   0.713771  -0.000026   0.000001
 -2.246079   0.921722   4.161371 -177.239573 -20.490780 177.438528   4.084486  -0.566231  -1.131371   2.366977  -1.796432   2.063973  -0.935095   0.323250   2.006390   2.572402  -1.899524   9.128381   4.297224   4.092757  51.996067  -0.000059  18.417140   0.000014  -1.865341   3.448943  -1.956461   3.833599  -0.294890  -8.588298   2.856810  -5.919630 -54.359681  -0.000002 -17.613869   0.000009  -1.634100  -2.682506   5.492646   6.206206  -1.730501   0.303412   7.966133   0.000018  -0.000001  -2.192739  -6.302631   4.200575 -13.672499  -0.000082  -0.000020   8.683841  -0.464478   5.410042   2.652904   0.000034  -0.000048  -9.102694   2.931439   3.693765   0.662412  -0.000016   0.000000
 -2.245973   0.921720   4.161269 -177.211692 -20.515923 177.450418   4.044197  -0.562244  -1.132346   2.389513  -1.798430   2.060942  -0.899987   0.316501   1.992711   2.549575  -1.868581   9.095868   4.256330   4.111437  52.045315  -0.000048  18.393039   0.000013  -1.891310   3.450413  -1.932198   3.826958  -0.306531  -8.565436   2.823811  -5.952870 -54.389115   0.000002 -17.556688   0.000022  -1.649614  -2.668229   5.469585   6.258216  -1.748735   0.311612   7.934910   0.000016  -0.000003  -2.188507  -6.304355   4.217590 -13.657389  -0.000069  -0.000016   8.740842  -0.466746   5.420732   2.594364   0.000031  -0.000048  -9.077283   2.913715   3.693428   0.621693  -0.000009   0.000000
 -2.245875   0.921718   4.161180 -177.184507 -20.540622 177.461962   4.005638  -0.557278  -1.134347   2.409887  -1.799183   2.057116  -0.867327   0.310224   1.979851   2.527741  -1.839267   9.064452   4.217707   4.129065  52.090448  -0.000039  18.370753   0.000012  -1.916122   3.453044  -1.910772   3.821269  -0.316863  -8.543608   2.793444  -5.983496 -54.416186   0.000004 -17.503148   0.000032  -1.664569  -2.653828   5.448480   6.307412  -1.766441   0.319255   7.906305   0.000014  -0.000004  -2.183671  -6.306633   4.233433 -13.646288  -0.000057  -0.000013   8.794621  -0.469443   5.430694   2.539875   0.000029  -0.000048  -9.053200   2.896520   3.693083   0.589417  -0.000004   0.000000
 -2.245785   0.921717   4.161103 -177.157989 -20.564676 177.473163   3.968813  -0.551557  -1.137258   2.428372  -1.798911   2.052607  -0.836947   0.304383   1.967761   2.506956  -1.811564   9.034310   4.181303   4.145668  52.131935  -0.000031  18.350116   0.000011  -1.939842   3.456543  -1.891664   3.816479  -0.325999  -8.522946   2.765536  -6.011709 -54.441209   0.000006 -17.453005   0.000041  -1.678989  -2.639282   5.428899   6.353929  -1.783526   0.326305   7.880058   0.000013  -0.000004  -2.178299  -6.309304   4.248157 -13.638393  -0.000047  -0.000010   8.845334  -0.472437   5.439901   2.489211   0.000026  -0.000046  -9.030345   2.879932   3.692724   0.563851  -0.000001   0.000000
 -2.245712   0.921702   4.161036 -177.121320 -20.596745 177.498098   3.948684  -0.548616  -1.146255   2.440710  -1.802060   2.041995  -0.795219   0.294372   1.956557   2.479866  -1.789804   8.992917   4.141445   4.168048  52.190839  -0.000024  18.319443   0.000011  -1.968616   3.451366  -1.875510   3.802017  -0.323358  -8.493173   2.736315  -6.041454 -54.471291   0.000013 -17.374934   0.000067  -1.697023  -2.636188   5.404874   6.409237  -1.803963   0.322554   7.860690   0.000011  -0.000005  -2.191043  -6.317055   4.262518 -13.613568  -0.000042  -0.000008   8.906567  -0.480160   5.438433   2.434684   0.000023  -0.000047  -9.004564   2.858921   3.692098   0.543439   0.000000   0.000000
 -2.245649   0.921686   4.160981 -177.085520 -20.630482 177.524231   3.929899  -0.544311  -1.155386   2.452905  -1.803815   2.030682  -0.755310   0.284772   1.945650   2.453469  -1.768791   8.953949   4.103230   4.189649  52.246141  -0.000019  18.291185   0.000011  -1.996645   3.445497  -1.859754   3.789448  -0.319789  -8.464506   2.709975  -6.068240 -54.498369   0.000019 -17.300995   0.000089  -1.715391  -2.625905   5.384004   6.462030  -1.824784   0.316706   7.844153   0.000009  -0.000006  -2.205849  -6.326508   4.276317 -13.588446  -0.000037  -0.000007   8.964691  -0.489308   5.434826   2.383032   0.000020  -0.000048  -8.979205   2.837080   3.691149   0.527175   0.000001   0.000000
 -2.245594   0.921671   4.160938 -177.051161 -20.664299 177.549709   3.912201  -0.538305  -1.163880   2.464492  -1.803650   2.019925  -0.717973   0.275829   1.935348   2.428173  -1.748535   8.917405   4.066970   4.210204  52.297556  -0.000016  18.265074   0.000013  -2.023461   3.440955  -1.844937   3.778819  -0.315441  -8.437400   2.686357  -6.092461 -54.523248   0.000025 -17.231512   0.000106  -1.733321  -2.612862   5.365217   6.511880  -1.845375   0.310413   7.829265   0.000007  -0.000007  -2.219855  -6.336627   4.289284 -13.565573  -0.000033  -0.000005   9.019135  -0.499067   5.430657   2.334739   0.000017  -0.000048  -8.954742   2.815408   3.690163   0.514261   0.000001   0.000000
 -2.245546   0.921657   4.160906 -177.018253 -20.697657 177.574186   3.895548  -0.530878  -1.171667   2.475444  -1.801782   2.009955  -0.683121   0.267517   1.925720   2.404042  -1.729074   8.883160   4.032655   4.229709  52.345411  -0.000013  18.240917   0.000014  -2.049092   3.437722  -1.830981   3.769944  -0.310424  -8.411852   2.665216  -6.114369 -54.546255   0.000029 -17.166271   0.000118  -1.750724  -2.598254   5.347866   6.558838  -1.865514   0.304004   7.815703   0.000006  -0.000007  -2.232558  -6.347053   4.301383 -13.545153  -0.000029  -0.000004   9.070036  -0.509131   5.426246   2.289696   0.000015  -0.000047  -8.931222   2.794206   3.689211   0.504011   0.000002  -0.000000
